<!DOCTYPE svg PUBLIC "-//W3C//DTD SVG 1.1//EN" "http://www.w3.org/Graphics/SVG/1.1/DTD/svg11.dtd">
<!-- Uploaded to: SVG Repo, www.svgrepo.com, Transformed by: SVG Repo Mixer Tools -->
<svg fill="#FFCD67" width="800px" height="800px" viewBox="0 0 512 512" version="1.1" xml:space="preserve" xmlns="http://www.w3.org/2000/svg" xmlns:xlink="http://www.w3.org/1999/xlink">
<g id="SVGRepo_bgCarrier" stroke-width="0"/>
<g id="SVGRepo_tracerCarrier" stroke-linecap="round" stroke-linejoin="round"/>
<g id="SVGRepo_iconCarrier"> <g id="_x37_16_x2C__Business_x2C__coach_x2C__course_x2C__instructor_x2C__mentor"> <g> <path d="M226.813,98.365c2.042,0.787,4.183,1.427,6.373,1.92 c3.15,0.688,6.473,1.082,9.893,1.082c9.795,0,18.875-3.1,26.283-8.344c2.561-1.818,4.897-3.863,7.014-6.127l7.899-13.166 c-3.74-1.377-7.728-2.288-11.861-2.632h-0.024h-0.147l-0.074-0.024h-0.073h-0.172l0,0l-0.149-0.025h-0.123h-0.049l-0.147-0.023 h-0.05h-0.122h-0.123h-0.024l-0.469-0.027h-0.024l-0.147-0.024h-0.123h-0.024h-0.172h-0.049h-0.099h-0.149h-0.024l-0.147-0.024 h-0.099h-0.073h-0.147h-0.024h-0.147h-0.123h-0.024h-0.172h-0.051h-0.099h-0.172h-0.442h-0.147h-0.32l-0.271,0.024h-0.196h-0.371 h-0.073l-0.467,0.024h-0.049l-0.396,0.027l-0.196,0.023H265.4l-0.319,0.025l-0.147,0.024l-0.42,0.024h-0.024l-0.565,0.074 l-0.32,0.023l-0.246,0.025l-0.196,0.024l-0.37,0.049h-0.074l-0.467,0.073h-0.024l-0.393,0.05l-0.174,0.024l-0.271,0.049 l-0.295,0.05l-0.566,0.099h-0.024l-0.442,0.073l-0.099,0.024l-0.321,0.074l-0.245,0.023l-0.541,0.123l-0.075,0.025l-0.442,0.1 h-0.049l-0.542,0.123l-0.271,0.073l-0.813,0.222h-0.024l-1.599,0.467l-0.074,0.024c-7.087,2.216-13.438,6.129-18.581,11.272 C232.374,88.301,229.102,93.073,226.813,98.365 M279.943,93.195c-2.043,1.994-4.232,3.84-6.545,5.49 c-8.565,6.078-19.023,9.645-30.319,9.645c-3.864,0-7.679-0.441-11.394-1.254c-2.437-0.541-4.848-1.279-7.161-2.141 c-0.959,3.691-1.478,7.556-1.478,11.543c0,12.574,5.094,23.968,13.338,32.188c8.219,8.245,19.615,13.339,32.189,13.339 c12.576,0,23.97-5.118,32.189-13.339c8.244-8.22,13.338-19.613,13.338-32.188c0-3.127-0.295-6.179-0.91-9.131l-0.148-0.051 L279.943,93.195z M291.143,76.93c-1.699,3.863-3.84,7.457-6.351,10.779l25.692,10.927l-0.073-0.196l-0.099-0.199l-0.074-0.195 l-0.1-0.172v-0.025l-0.073-0.172l-0.099-0.196l-0.073-0.196l-0.099-0.174l-0.27-0.565l-0.074-0.172l-0.024-0.024l-0.073-0.174 l-0.099-0.197l-0.051-0.098l-0.05-0.098l-0.098-0.172l-0.196-0.369l-0.099-0.198l-0.196-0.344l-0.099-0.196l-0.049-0.074 l-0.049-0.098l-0.199-0.371l0,0l-0.27-0.491l-0.049-0.049l-0.099-0.172l-0.099-0.174L307.605,93l-0.074-0.123l-0.098-0.172 l-0.099-0.172h-0.024l-0.1-0.172l-0.123-0.174l-0.049-0.123l-0.05-0.074l-0.123-0.172l-0.098-0.172l-0.024-0.024l-0.099-0.147 l-0.099-0.172l-0.098-0.149l-0.025-0.024l-0.122-0.172l-0.125-0.172l-0.049-0.074l-0.074-0.098l-0.098-0.172l-0.123-0.148V90.27 l-0.123-0.149l-0.123-0.173l-0.073-0.122l-0.049-0.05l-0.123-0.172l-0.123-0.172l-0.026-0.049l-0.099-0.098l-0.122-0.174 l-0.099-0.148l-0.024-0.023l-0.123-0.172l-0.123-0.148l-0.073-0.098l-0.049-0.074l-0.123-0.146l-0.147-0.174l-0.026-0.025 l-0.099-0.123l-0.123-0.172l-0.098-0.122l-0.024-0.024l-0.147-0.172l-0.123-0.148l-0.073-0.073l-0.099-0.149l-0.172-0.196 l-0.075-0.073l-0.099-0.123l-0.172-0.197l-0.074-0.098l-0.098-0.098l-0.172-0.199l-0.099-0.098l-0.073-0.099l-0.543-0.565 l-0.122-0.146l-0.05-0.05l-0.172-0.198l-0.518-0.516l-0.196-0.172C297.908,81.434,294.685,78.947,291.143,76.93z M268.255,213.758 h28.596L296.014,189l-2.979,2.684l-0.049,0.023l-0.024,0.025l-0.049,0.049l-0.025,0.025l-0.049,0.023l-0.024,0.05l-0.049,0.024 l-23.87,21.362C268.697,213.463,268.476,213.61,268.255,213.758z M239.832,189.764l-1.256,23.994h26.309 c-0.223-0.147-0.443-0.295-0.641-0.491L239.832,189.764z M302.658,187.746l0.984,29.26c0.05,1.821-1.401,3.373-3.223,3.422 l-65.363,0.024c-1.846,0-3.346-1.502-3.346-3.349l1.549-29.579l-54.166,23.6v47.201h177.212v-47.201L302.658,187.746z M287.327,165.523c-5.808,2.238-12.132,3.446-18.753,3.446c-7.161,0-13.978-1.429-20.204-4.036v23.771l18.284,17.597 l20.673-18.482V165.523z M359.729,265.02h-0.075H175.748h-0.098H74.899v13.756h385.603V265.02H359.729z M150.205,309.808 c-5.391-5.389-12.847-8.735-21.09-8.735c-8.195,0-15.628,3.322-21.017,8.662c-5.634,5.636-8.786,13.166-8.786,21.164 c0,8.219,3.348,15.677,8.737,21.065c5.389,5.413,12.846,8.737,21.066,8.737c8.146,0,15.527-3.25,20.894-8.541 c5.757-6.25,8.934-12.6,8.934-21.262C158.941,322.654,155.593,315.198,150.205,309.808z M125.447,397.417l-18.58-17.843 l-37.479,16.318v30.294h118.247v-30.294l-37.553-16.367l-3.594,3.226l-0.049,0.024l-0.024,0.049l-0.049,0.025l-0.024,0.023 l-0.049,0.05l-0.025,0.024l-0.049,0.025l-16.144,14.444C128.794,398.646,126.728,398.672,125.447,397.417z M293.7,309.808 c-5.389-5.389-12.846-8.735-21.065-8.735c-8.194,0-15.626,3.322-21.017,8.662c-5.659,5.636-8.809,13.166-8.809,21.164 c0,8.219,3.346,15.677,8.735,21.065c5.391,5.413,12.846,8.737,21.09,8.737c8.121,0,15.505-3.25,20.894-8.541 c5.734-6.25,8.909-12.6,8.909-21.262C302.438,322.654,299.09,315.198,293.7,309.808z M268.944,397.417l-18.581-17.843 l-37.455,16.318v30.294h118.248v-30.294l-37.578-16.367l-3.594,3.226l-0.024,0.024l-0.05,0.049l-0.024,0.025l-0.049,0.023 l-0.024,0.05l-0.05,0.024l-0.024,0.025l-16.168,14.444C272.291,398.646,270.248,398.672,268.944,397.417z M284.301,378.887 v-13.092c-3.668,1.205-7.605,1.87-11.666,1.87c-4.453,0-8.711-0.788-12.673-2.241v14.077l11.394,10.952L284.301,378.887z M437.001,309.808c-5.389-5.389-12.847-8.735-21.066-8.735c-8.219,0-15.626,3.322-21.041,8.662 c-5.634,5.636-8.784,13.166-8.784,21.164c0,8.219,3.347,15.677,8.735,21.065c5.391,5.413,12.847,8.737,21.09,8.737 c8.121,0,15.505-3.25,20.895-8.541c5.734-6.25,8.908-12.6,8.908-21.262C445.737,322.654,442.39,315.198,437.001,309.808z M412.245,397.417l-18.581-17.843l-37.455,16.318v30.294h118.223v-30.294l-37.554-16.367l-3.594,3.226l-0.049,0.024l-0.024,0.049 l-0.025,0.025l-0.049,0.023l-0.024,0.05l-0.049,0.024l-0.025,0.025l-16.168,14.444 C415.591,398.646,413.549,398.672,412.245,397.417z M427.601,378.887v-13.092c-3.692,1.205-7.605,1.87-11.666,1.87 c-4.453,0-8.71-0.788-12.673-2.241v14.077l11.369,10.952L427.601,378.887z M99.731,228.549c0-3.84-6.695-4.332-6.695,0.344 c0.123,2.215,0.419,4.775,0.714,6.989c1.009,4.972,7.382,2.88,6.668-0.788C100.099,232.978,99.903,230.689,99.731,228.549z M99.559,202.314c0-4.995-6.669-4.283-6.669-0.468l-0.369,6.817c0,4.676,6.692,4.355,6.692,0.221L99.559,202.314z M103.472,176.4 c0.909-4.578-5.71-5.586-6.522-1.525c-0.516,2.216-0.959,4.455-1.402,6.693c-0.321,1.625,0.664,3.175,1.994,3.692 c2.091,0.861,4.183-0.444,4.576-2.438C102.537,180.683,102.979,178.542,103.472,176.4z M111.444,151.447 c1.649-4.184-4.577-6.595-6.202-2.559c-0.861,2.115-1.672,4.232-2.46,6.373c-0.689,1.723,0.393,3.643,1.821,4.207 c1.994,0.789,3.789-0.195,4.479-1.943C109.82,155.482,110.608,153.465,111.444,151.447z M123.257,128.02 c2.288-3.815-3.494-7.211-5.735-3.47l-3.42,5.905c-1.969,3.273,2.879,7.236,5.759,3.422L123.257,128.02z M138.588,106.757 c0.714-0.714,1.034-2.239,0.591-3.321c-0.984-2.438-3.766-2.93-5.686-1.01c-1.476,1.722-2.953,3.519-4.331,5.315 c-2.732,3.616,2.732,7.505,5.291,4.085L138.588,106.757z M157.071,88.15c3.543-3.542-1.699-7.75-4.382-5.068 c-1.647,1.428-3.542,3.026-5.094,4.553c-3.297,3.298,1.649,7.826,4.603,4.873C153.796,91.031,155.421,89.58,157.071,88.15z M178.235,72.648c3.641-2.19,0.172-7.925-3.52-5.686c-1.871,1.256-3.864,2.438-5.759,3.717c-3.592,2.141-0.172,7.899,3.766,5.537 C174.518,74.985,176.364,73.805,178.235,72.648z M201.564,60.688c3.938-1.574,1.599-7.851-2.56-6.201 c-2.092,0.837-4.232,1.821-6.299,2.781c-1.157,0.467-2.19,2.066-1.896,3.518c0.444,2.217,2.462,3.447,4.726,2.536L201.564,60.688z M226.443,52.542c0.371-0.073,0.886-0.319,1.158-0.517c2.878-2.164,1.034-6.742-2.732-5.979c-2.19,0.516-4.406,1.107-6.596,1.722 c-4.257,1.723-2.46,7.311,1.846,6.448C222.21,53.625,224.327,53.035,226.443,52.542z M252.357,48.432 c3.938,0,4.159-6.669-0.172-6.669c-2.239,0.051-4.922,0.395-7.161,0.665c-4.971,1.009-2.904,7.382,0.788,6.645 C248.002,48.825,250.167,48.604,252.357,48.432z M278.565,48.408c5.07,0,4.282-6.67,0.519-6.67l-6.793-0.394 c-4.726,0-4.38,6.694-0.246,6.694L278.565,48.408z M304.48,52.469c4.625,0.935,5.561-5.711,1.549-6.496l-6.692-1.479 c-4.406-0.861-5.317,5.784-1.257,6.572L304.48,52.469z M329.408,60.59c4.16,1.648,6.572-4.602,2.535-6.201l-6.348-2.485 c-3.889-1.575-6.597,4.576-2.291,6.274C325.348,58.941,327.391,59.752,329.408,60.59z M352.764,72.525 c3.789,2.288,7.211-3.47,3.469-5.734c-1.943-1.182-3.888-2.338-5.881-3.445c-1.083-0.641-2.633-0.518-3.543,0.197 c-2.067,1.526-1.846,4.379,0.27,5.66C348.998,70.262,350.894,71.393,352.764,72.525z M373.903,87.979 c2.73,2.732,7.874-1.573,4.355-5.094c-1.724-1.476-3.495-2.904-5.267-4.355c-3.667-2.756-7.506,2.732-4.134,5.267 C370.58,85.15,372.254,86.553,373.903,87.979z M392.409,106.561c3.594,3.566,7.753-1.699,5.094-4.357l-4.527-5.119 c-3.323-3.321-7.802,1.65-4.897,4.555C389.555,103.236,391.007,104.91,392.409,106.561z M407.789,127.798 c2.239,3.69,7.998,0.295,5.734-3.446c-1.058-1.869-2.707-4.552-4.011-6.201c-2.904-2.929-7.382,0.542-5.241,4.109 C405.477,124.082,406.657,125.928,407.789,127.798z M419.651,151.176c1.525,3.865,7.851,1.602,6.177-2.56 c-0.861-2.116-1.772-4.183-2.707-6.251c-1.525-3.789-7.85-1.598-6.104,2.781C417.953,147.141,418.814,149.158,419.651,151.176z M427.649,176.131c0.813,4.061,7.432,3.051,6.496-1.551c-0.491-2.19-1.082-4.381-1.672-6.57c-1.724-4.309-7.311-2.512-6.449,1.795 C426.592,171.896,427.156,174.015,427.649,176.131z M431.612,202.068c0,3.839,6.668,4.406,6.668-0.418 c-0.147-2.289-0.369-4.604-0.639-6.891c-0.984-4.996-7.359-2.904-6.646,0.763C431.241,197.688,431.465,199.878,431.612,202.068z M431.489,228.277c0,5.094,6.668,4.283,6.668,0.541l0.444-6.816c0-4.75-6.695-4.331-6.695-0.271L431.489,228.277z M221.498,470.655c-1.846,0-3.348-1.478-3.348-3.323c0-1.869,1.502-3.371,3.348-3.371h212.771c1.846,0,3.348,1.502,3.348,3.371 c0,1.846-1.502,3.323-3.348,3.323H221.498z M456.049,470.655c-1.847,0-3.347-1.478-3.347-3.323c0-1.869,1.5-3.371,3.347-3.371 h26.602c1.846,0,3.349,1.502,3.349,3.371c0,1.846-1.503,3.323-3.349,3.323H456.049z M29.348,470.187 c-1.846,0-3.346-1.5-3.346-3.347c0-1.846,1.5-3.346,3.346-3.346h100.825c1.846,0,3.346,1.5,3.346,3.346 c0,1.847-1.5,3.347-3.346,3.347H29.348z M41.456,454.659c-1.846,0-3.346-1.503-3.346-3.349c0-1.844,1.5-3.346,3.346-3.346h307.469 c1.846,0,3.347,1.502,3.347,3.346c0,1.846-1.501,3.349-3.347,3.349H41.456z M140.778,378.887v-13.092 c-3.666,1.205-7.579,1.87-11.664,1.87c-4.454,0-8.712-0.788-12.65-2.241v14.077l11.371,10.952L140.778,378.887z" style="fill-rule:evenodd;clip-rule:evenodd;"/> </g> </g> <g id="Layer_1"/> </g>
</svg>